<mxfile host="Electron" agent="Mozilla/5.0 (Macintosh; Intel Mac OS X 10_15_7) AppleWebKit/537.36 (KHTML, like Gecko) draw.io/27.0.9 Chrome/134.0.6998.205 Electron/35.4.0 Safari/537.36" version="27.0.9">
  <diagram name="Страница — 1" id="-qA2AAfEPjBN4Rw2o7dX">
    <mxGraphModel dx="1397" dy="901" grid="0" gridSize="10" guides="1" tooltips="1" connect="1" arrows="1" fold="1" page="0" pageScale="1" pageWidth="1169" pageHeight="827" math="0" shadow="0">
      <root>
        <mxCell id="0" />
        <mxCell id="1" parent="0" />
        <mxCell id="y4rXXtKM_JU6gXHIq_rk-82" style="edgeStyle=orthogonalEdgeStyle;rounded=0;orthogonalLoop=1;jettySize=auto;html=1;exitX=1;exitY=0.5;exitDx=0;exitDy=0;entryX=0;entryY=0.5;entryDx=0;entryDy=0;" parent="1" source="y4rXXtKM_JU6gXHIq_rk-1" target="y4rXXtKM_JU6gXHIq_rk-49" edge="1">
          <mxGeometry relative="1" as="geometry">
            <Array as="points">
              <mxPoint x="555" y="540" />
              <mxPoint x="555" y="235" />
            </Array>
          </mxGeometry>
        </mxCell>
        <mxCell id="y4rXXtKM_JU6gXHIq_rk-1" value="Запомнили имя" style="rounded=0;whiteSpace=wrap;html=1;fillColor=#f5f5f5;strokeColor=#666666;fontColor=#333333;" parent="1" vertex="1">
          <mxGeometry x="387.74" y="521" width="120" height="60" as="geometry" />
        </mxCell>
        <mxCell id="y4rXXtKM_JU6gXHIq_rk-14" style="edgeStyle=orthogonalEdgeStyle;rounded=0;orthogonalLoop=1;jettySize=auto;html=1;exitX=0.5;exitY=1;exitDx=0;exitDy=0;entryX=0.5;entryY=0;entryDx=0;entryDy=0;" parent="1" source="y4rXXtKM_JU6gXHIq_rk-2" target="y4rXXtKM_JU6gXHIq_rk-1" edge="1">
          <mxGeometry relative="1" as="geometry" />
        </mxCell>
        <mxCell id="y4rXXtKM_JU6gXHIq_rk-2" value="Шрек" style="shape=parallelogram;perimeter=parallelogramPerimeter;whiteSpace=wrap;html=1;fixedSize=1;fillColor=#d5e8d4;strokeColor=#82b366;" parent="1" vertex="1">
          <mxGeometry x="378.99" y="421" width="137.5" height="60" as="geometry" />
        </mxCell>
        <mxCell id="y4rXXtKM_JU6gXHIq_rk-68" style="edgeStyle=orthogonalEdgeStyle;rounded=0;orthogonalLoop=1;jettySize=auto;html=1;exitX=0.25;exitY=1;exitDx=0;exitDy=0;entryX=0.5;entryY=0;entryDx=0;entryDy=0;" parent="1" source="y4rXXtKM_JU6gXHIq_rk-4" target="y4rXXtKM_JU6gXHIq_rk-15" edge="1">
          <mxGeometry relative="1" as="geometry" />
        </mxCell>
        <mxCell id="y4rXXtKM_JU6gXHIq_rk-69" style="edgeStyle=orthogonalEdgeStyle;rounded=0;orthogonalLoop=1;jettySize=auto;html=1;exitX=0.75;exitY=1;exitDx=0;exitDy=0;entryX=0.5;entryY=0;entryDx=0;entryDy=0;" parent="1" source="y4rXXtKM_JU6gXHIq_rk-4" target="y4rXXtKM_JU6gXHIq_rk-2" edge="1">
          <mxGeometry relative="1" as="geometry" />
        </mxCell>
        <mxCell id="y4rXXtKM_JU6gXHIq_rk-4" value="Как тебя зовут?" style="rounded=1;whiteSpace=wrap;html=1;fillColor=#dae8fc;strokeColor=#6c8ebf;" parent="1" vertex="1">
          <mxGeometry x="328.13" y="321" width="120" height="60" as="geometry" />
        </mxCell>
        <mxCell id="y4rXXtKM_JU6gXHIq_rk-70" style="edgeStyle=orthogonalEdgeStyle;rounded=0;orthogonalLoop=1;jettySize=auto;html=1;exitX=0.25;exitY=1;exitDx=0;exitDy=0;entryX=0.5;entryY=0;entryDx=0;entryDy=0;" parent="1" source="y4rXXtKM_JU6gXHIq_rk-5" target="y4rXXtKM_JU6gXHIq_rk-21" edge="1">
          <mxGeometry relative="1" as="geometry" />
        </mxCell>
        <mxCell id="y4rXXtKM_JU6gXHIq_rk-71" style="edgeStyle=orthogonalEdgeStyle;rounded=0;orthogonalLoop=1;jettySize=auto;html=1;exitX=0.75;exitY=1;exitDx=0;exitDy=0;entryX=0.5;entryY=0;entryDx=0;entryDy=0;" parent="1" source="y4rXXtKM_JU6gXHIq_rk-5" target="y4rXXtKM_JU6gXHIq_rk-6" edge="1">
          <mxGeometry relative="1" as="geometry" />
        </mxCell>
        <mxCell id="y4rXXtKM_JU6gXHIq_rk-5" value="Откуда ты?" style="rounded=1;whiteSpace=wrap;html=1;fillColor=#dae8fc;strokeColor=#6c8ebf;" parent="1" vertex="1">
          <mxGeometry x="667.25" y="310" width="120" height="60" as="geometry" />
        </mxCell>
        <mxCell id="y4rXXtKM_JU6gXHIq_rk-32" style="edgeStyle=orthogonalEdgeStyle;rounded=0;orthogonalLoop=1;jettySize=auto;html=1;exitX=0.5;exitY=1;exitDx=0;exitDy=0;entryX=0.5;entryY=0;entryDx=0;entryDy=0;" parent="1" source="y4rXXtKM_JU6gXHIq_rk-6" target="y4rXXtKM_JU6gXHIq_rk-7" edge="1">
          <mxGeometry relative="1" as="geometry" />
        </mxCell>
        <mxCell id="y4rXXtKM_JU6gXHIq_rk-6" value="Болото" style="shape=parallelogram;perimeter=parallelogramPerimeter;whiteSpace=wrap;html=1;fixedSize=1;fillColor=#d5e8d4;strokeColor=#82b366;" parent="1" vertex="1">
          <mxGeometry x="724" y="410" width="146.25" height="60" as="geometry" />
        </mxCell>
        <mxCell id="y4rXXtKM_JU6gXHIq_rk-54" style="edgeStyle=orthogonalEdgeStyle;rounded=0;orthogonalLoop=1;jettySize=auto;html=1;exitX=1;exitY=0.5;exitDx=0;exitDy=0;entryX=0;entryY=0.5;entryDx=0;entryDy=0;" parent="1" source="y4rXXtKM_JU6gXHIq_rk-7" target="y4rXXtKM_JU6gXHIq_rk-52" edge="1">
          <mxGeometry relative="1" as="geometry">
            <Array as="points">
              <mxPoint x="915" y="540" />
              <mxPoint x="915" y="235" />
            </Array>
          </mxGeometry>
        </mxCell>
        <mxCell id="y4rXXtKM_JU6gXHIq_rk-7" value="Запомнили город" style="rounded=0;whiteSpace=wrap;html=1;fillColor=#f5f5f5;strokeColor=#666666;fontColor=#333333;" parent="1" vertex="1">
          <mxGeometry x="737.13" y="510" width="120" height="60" as="geometry" />
        </mxCell>
        <mxCell id="y4rXXtKM_JU6gXHIq_rk-74" style="edgeStyle=orthogonalEdgeStyle;rounded=0;orthogonalLoop=1;jettySize=auto;html=1;exitX=0.25;exitY=1;exitDx=0;exitDy=0;entryX=0.5;entryY=0;entryDx=0;entryDy=0;" parent="1" source="y4rXXtKM_JU6gXHIq_rk-8" target="y4rXXtKM_JU6gXHIq_rk-40" edge="1">
          <mxGeometry relative="1" as="geometry" />
        </mxCell>
        <mxCell id="y4rXXtKM_JU6gXHIq_rk-75" style="edgeStyle=orthogonalEdgeStyle;rounded=0;orthogonalLoop=1;jettySize=auto;html=1;exitX=0.75;exitY=1;exitDx=0;exitDy=0;entryX=0.5;entryY=0;entryDx=0;entryDy=0;" parent="1" source="y4rXXtKM_JU6gXHIq_rk-8" target="y4rXXtKM_JU6gXHIq_rk-9" edge="1">
          <mxGeometry relative="1" as="geometry" />
        </mxCell>
        <mxCell id="y4rXXtKM_JU6gXHIq_rk-8" value="Сколько тебе лет?" style="rounded=1;whiteSpace=wrap;html=1;fillColor=#dae8fc;strokeColor=#6c8ebf;" parent="1" vertex="1">
          <mxGeometry x="1022.8800000000001" y="310" width="120" height="60" as="geometry" />
        </mxCell>
        <mxCell id="y4rXXtKM_JU6gXHIq_rk-35" style="edgeStyle=orthogonalEdgeStyle;rounded=0;orthogonalLoop=1;jettySize=auto;html=1;exitX=0.5;exitY=1;exitDx=0;exitDy=0;entryX=0.5;entryY=0;entryDx=0;entryDy=0;" parent="1" source="y4rXXtKM_JU6gXHIq_rk-9" target="y4rXXtKM_JU6gXHIq_rk-10" edge="1">
          <mxGeometry relative="1" as="geometry" />
        </mxCell>
        <mxCell id="y4rXXtKM_JU6gXHIq_rk-9" value="31" style="shape=parallelogram;perimeter=parallelogramPerimeter;whiteSpace=wrap;html=1;fixedSize=1;fillColor=#d5e8d4;strokeColor=#82b366;" parent="1" vertex="1">
          <mxGeometry x="1085" y="407" width="150" height="60" as="geometry" />
        </mxCell>
        <mxCell id="y4rXXtKM_JU6gXHIq_rk-81" style="edgeStyle=orthogonalEdgeStyle;rounded=0;orthogonalLoop=1;jettySize=auto;html=1;exitX=1;exitY=0.5;exitDx=0;exitDy=0;entryX=0;entryY=0.5;entryDx=0;entryDy=0;" parent="1" source="y4rXXtKM_JU6gXHIq_rk-10" target="y4rXXtKM_JU6gXHIq_rk-11" edge="1">
          <mxGeometry relative="1" as="geometry">
            <Array as="points">
              <mxPoint x="1263" y="540" />
              <mxPoint x="1263" y="241" />
            </Array>
          </mxGeometry>
        </mxCell>
        <mxCell id="y4rXXtKM_JU6gXHIq_rk-10" value="Запомнили возраст" style="rounded=0;whiteSpace=wrap;html=1;fillColor=#f5f5f5;strokeColor=#666666;fontColor=#333333;" parent="1" vertex="1">
          <mxGeometry x="1027.26" y="510" width="120" height="60" as="geometry" />
        </mxCell>
        <mxCell id="y4rXXtKM_JU6gXHIq_rk-37" style="edgeStyle=orthogonalEdgeStyle;rounded=0;orthogonalLoop=1;jettySize=auto;html=1;exitX=0.5;exitY=1;exitDx=0;exitDy=0;entryX=0.5;entryY=0;entryDx=0;entryDy=0;" parent="1" source="y4rXXtKM_JU6gXHIq_rk-11" target="y4rXXtKM_JU6gXHIq_rk-12" edge="1">
          <mxGeometry relative="1" as="geometry" />
        </mxCell>
        <mxCell id="y4rXXtKM_JU6gXHIq_rk-11" value="Записали имя, город и возраст в хранилище (базу)" style="rounded=0;whiteSpace=wrap;html=1;fillColor=#f5f5f5;strokeColor=#666666;fontColor=#333333;" parent="1" vertex="1">
          <mxGeometry x="1297.38" y="211" width="120" height="60" as="geometry" />
        </mxCell>
        <mxCell id="y4rXXtKM_JU6gXHIq_rk-80" style="edgeStyle=orthogonalEdgeStyle;rounded=0;orthogonalLoop=1;jettySize=auto;html=1;exitX=0.5;exitY=1;exitDx=0;exitDy=0;entryX=0.5;entryY=0;entryDx=0;entryDy=0;" parent="1" source="y4rXXtKM_JU6gXHIq_rk-12" target="y4rXXtKM_JU6gXHIq_rk-79" edge="1">
          <mxGeometry relative="1" as="geometry" />
        </mxCell>
        <mxCell id="y4rXXtKM_JU6gXHIq_rk-12" value="Теперь мы знакомы!" style="rounded=1;whiteSpace=wrap;html=1;fillColor=#dae8fc;strokeColor=#6c8ebf;" parent="1" vertex="1">
          <mxGeometry x="1293" y="301" width="128.75" height="60" as="geometry" />
        </mxCell>
        <mxCell id="y4rXXtKM_JU6gXHIq_rk-67" style="edgeStyle=orthogonalEdgeStyle;rounded=0;orthogonalLoop=1;jettySize=auto;html=1;exitX=0;exitY=0.5;exitDx=0;exitDy=0;entryX=0;entryY=0.5;entryDx=0;entryDy=0;" parent="1" edge="1">
          <mxGeometry relative="1" as="geometry">
            <Array as="points">
              <mxPoint x="130" y="450" />
              <mxPoint x="130" y="47" />
            </Array>
            <mxPoint x="251.49" y="450.05" as="sourcePoint" />
            <mxPoint x="192.73999999999984" y="46.999999999999986" as="targetPoint" />
          </mxGeometry>
        </mxCell>
        <mxCell id="y4rXXtKM_JU6gXHIq_rk-15" value="Юзер жмёт назад" style="shape=parallelogram;perimeter=parallelogramPerimeter;whiteSpace=wrap;html=1;fixedSize=1;fillColor=#d5e8d4;strokeColor=#82b366;" parent="1" vertex="1">
          <mxGeometry x="241.49" y="421" width="137.5" height="60" as="geometry" />
        </mxCell>
        <mxCell id="y4rXXtKM_JU6gXHIq_rk-73" style="edgeStyle=orthogonalEdgeStyle;rounded=0;orthogonalLoop=1;jettySize=auto;html=1;exitX=0;exitY=0.5;exitDx=0;exitDy=0;entryX=1;entryY=0.5;entryDx=0;entryDy=0;" parent="1" source="y4rXXtKM_JU6gXHIq_rk-21" target="y4rXXtKM_JU6gXHIq_rk-45" edge="1">
          <mxGeometry relative="1" as="geometry">
            <Array as="points">
              <mxPoint x="533" y="440" />
              <mxPoint x="533" y="235" />
              <mxPoint x="433" y="235" />
            </Array>
          </mxGeometry>
        </mxCell>
        <mxCell id="y4rXXtKM_JU6gXHIq_rk-21" value="Юзер жмёт назад" style="shape=parallelogram;perimeter=parallelogramPerimeter;whiteSpace=wrap;html=1;fixedSize=1;fillColor=#d5e8d4;strokeColor=#82b366;" parent="1" vertex="1">
          <mxGeometry x="572" y="410" width="146.25" height="60" as="geometry" />
        </mxCell>
        <mxCell id="y4rXXtKM_JU6gXHIq_rk-27" style="edgeStyle=orthogonalEdgeStyle;rounded=0;orthogonalLoop=1;jettySize=auto;html=1;exitX=0.5;exitY=1;exitDx=0;exitDy=0;entryX=0.5;entryY=0;entryDx=0;entryDy=0;" parent="1" source="y4rXXtKM_JU6gXHIq_rk-24" target="y4rXXtKM_JU6gXHIq_rk-26" edge="1">
          <mxGeometry relative="1" as="geometry" />
        </mxCell>
        <mxCell id="y4rXXtKM_JU6gXHIq_rk-24" value="Бот: Привет! Давай знакомиться" style="rounded=1;whiteSpace=wrap;html=1;fillColor=#dae8fc;strokeColor=#6c8ebf;" parent="1" vertex="1">
          <mxGeometry x="177.74" y="119.95" width="120" height="60" as="geometry" />
        </mxCell>
        <mxCell id="y4rXXtKM_JU6gXHIq_rk-61" style="edgeStyle=orthogonalEdgeStyle;rounded=0;orthogonalLoop=1;jettySize=auto;html=1;exitX=1;exitY=0.5;exitDx=0;exitDy=0;entryX=0;entryY=0.5;entryDx=0;entryDy=0;" parent="1" source="y4rXXtKM_JU6gXHIq_rk-26" target="y4rXXtKM_JU6gXHIq_rk-45" edge="1">
          <mxGeometry relative="1" as="geometry" />
        </mxCell>
        <mxCell id="y4rXXtKM_JU6gXHIq_rk-26" value="Юзер: го" style="shape=parallelogram;perimeter=parallelogramPerimeter;whiteSpace=wrap;html=1;fixedSize=1;fillColor=#d5e8d4;strokeColor=#82b366;" parent="1" vertex="1">
          <mxGeometry x="168.99" y="204.95" width="137.5" height="60" as="geometry" />
        </mxCell>
        <mxCell id="y4rXXtKM_JU6gXHIq_rk-76" style="edgeStyle=orthogonalEdgeStyle;rounded=0;orthogonalLoop=1;jettySize=auto;html=1;exitX=0;exitY=0.5;exitDx=0;exitDy=0;entryX=1;entryY=0.5;entryDx=0;entryDy=0;" parent="1" source="y4rXXtKM_JU6gXHIq_rk-40" target="y4rXXtKM_JU6gXHIq_rk-49" edge="1">
          <mxGeometry relative="1" as="geometry">
            <Array as="points">
              <mxPoint x="884" y="440" />
              <mxPoint x="884" y="235" />
            </Array>
          </mxGeometry>
        </mxCell>
        <mxCell id="y4rXXtKM_JU6gXHIq_rk-40" value="Юзер жмёт назад" style="shape=parallelogram;perimeter=parallelogramPerimeter;whiteSpace=wrap;html=1;fixedSize=1;fillColor=#d5e8d4;strokeColor=#82b366;" parent="1" vertex="1">
          <mxGeometry x="930.0000000000001" y="410" width="150" height="60" as="geometry" />
        </mxCell>
        <mxCell id="y4rXXtKM_JU6gXHIq_rk-47" style="edgeStyle=orthogonalEdgeStyle;rounded=0;orthogonalLoop=1;jettySize=auto;html=1;exitX=0.5;exitY=1;exitDx=0;exitDy=0;" parent="1" source="y4rXXtKM_JU6gXHIq_rk-45" edge="1">
          <mxGeometry relative="1" as="geometry">
            <mxPoint x="390.2311111111111" y="270.0611111111111" as="targetPoint" />
          </mxGeometry>
        </mxCell>
        <mxCell id="y4rXXtKM_JU6gXHIq_rk-48" style="edgeStyle=orthogonalEdgeStyle;rounded=0;orthogonalLoop=1;jettySize=auto;html=1;exitX=0.5;exitY=1;exitDx=0;exitDy=0;entryX=0.5;entryY=0;entryDx=0;entryDy=0;" parent="1" source="y4rXXtKM_JU6gXHIq_rk-45" target="y4rXXtKM_JU6gXHIq_rk-4" edge="1">
          <mxGeometry relative="1" as="geometry" />
        </mxCell>
        <mxCell id="y4rXXtKM_JU6gXHIq_rk-45" value="Состояние: ввод имени" style="ellipse;whiteSpace=wrap;html=1;aspect=fixed;" parent="1" vertex="1">
          <mxGeometry x="343.13" y="189.95" width="90" height="90" as="geometry" />
        </mxCell>
        <mxCell id="y4rXXtKM_JU6gXHIq_rk-51" style="edgeStyle=orthogonalEdgeStyle;rounded=0;orthogonalLoop=1;jettySize=auto;html=1;exitX=0.5;exitY=1;exitDx=0;exitDy=0;entryX=0.5;entryY=0;entryDx=0;entryDy=0;" parent="1" source="y4rXXtKM_JU6gXHIq_rk-49" target="y4rXXtKM_JU6gXHIq_rk-5" edge="1">
          <mxGeometry relative="1" as="geometry" />
        </mxCell>
        <mxCell id="y4rXXtKM_JU6gXHIq_rk-49" value="Состояние: ввод города" style="ellipse;whiteSpace=wrap;html=1;aspect=fixed;" parent="1" vertex="1">
          <mxGeometry x="682.25" y="190" width="90" height="90" as="geometry" />
        </mxCell>
        <mxCell id="y4rXXtKM_JU6gXHIq_rk-78" style="edgeStyle=orthogonalEdgeStyle;rounded=0;orthogonalLoop=1;jettySize=auto;html=1;exitX=0.5;exitY=1;exitDx=0;exitDy=0;entryX=0.5;entryY=0;entryDx=0;entryDy=0;" parent="1" source="y4rXXtKM_JU6gXHIq_rk-52" target="y4rXXtKM_JU6gXHIq_rk-8" edge="1">
          <mxGeometry relative="1" as="geometry" />
        </mxCell>
        <mxCell id="y4rXXtKM_JU6gXHIq_rk-52" value="Состояние: ввод возраста" style="ellipse;whiteSpace=wrap;html=1;aspect=fixed;" parent="1" vertex="1">
          <mxGeometry x="1037.88" y="190" width="90" height="90" as="geometry" />
        </mxCell>
        <mxCell id="y4rXXtKM_JU6gXHIq_rk-66" style="edgeStyle=orthogonalEdgeStyle;rounded=0;orthogonalLoop=1;jettySize=auto;html=1;exitX=0.5;exitY=1;exitDx=0;exitDy=0;entryX=0.5;entryY=0;entryDx=0;entryDy=0;" parent="1" source="y4rXXtKM_JU6gXHIq_rk-65" target="y4rXXtKM_JU6gXHIq_rk-24" edge="1">
          <mxGeometry relative="1" as="geometry" />
        </mxCell>
        <mxCell id="y4rXXtKM_JU6gXHIq_rk-65" value="Старт" style="ellipse;whiteSpace=wrap;html=1;aspect=fixed;" parent="1" vertex="1">
          <mxGeometry x="192.74" y="2.95" width="90" height="90" as="geometry" />
        </mxCell>
        <mxCell id="y4rXXtKM_JU6gXHIq_rk-79" value="Конец" style="ellipse;whiteSpace=wrap;html=1;aspect=fixed;" parent="1" vertex="1">
          <mxGeometry x="1312.37" y="391" width="90" height="90" as="geometry" />
        </mxCell>
      </root>
    </mxGraphModel>
  </diagram>
</mxfile>
